<?xml version="1.0" encoding="utf-8"?>
<svg version="1.1" id="Swift" xmlns="http://www.w3.org/2000/svg" xmlns:xlink="http://www.w3.org/1999/xlink" x="0px" y="0px"
	 viewBox="-4 12 190 48" style="enable-background:new -4 12 190 48;" xml:space="preserve">
<style type="text/css">
	.st0{fill:#221F20;}
	.st1{fill:#EF5138;}
	.st2{fill:#FFFFFF;}
</style>
<title>Swift.org</title>
<desc>Swift Logo</desc>
<g transform="translate(67.000000, 20.000000) rotate(-90.000000) translate(-67.000000, -20.000000) translate(47.000000, -47.000000)">
	<g id="Wordmark">
		<path class="st0" d="M-15.3,68.8c-0.7,1-1.3,2.2-1.8,3.6c-0.4,1.4-0.7,2.8-0.7,4.3c0,2.7,0.7,4.9,2.1,6.5s3.3,2.3,5.6,2.3
			c2.1,0,3.8-0.6,5.1-1.7s2.5-3,3.6-5.7c1-2.9,2.3-5.1,4-6.8c1.6-1.7,3.7-2.5,6.3-2.5c1.4,0,2.6,0.3,3.8,0.8c1.2,0.5,2.1,1.3,3,2.2
			c0.8,0.9,1.5,2,1.9,3.3c0.5,1.3,0.7,2.7,0.7,4.3c0,1.8-0.2,3.2-0.5,4.4c-0.4,1.2-0.8,2.1-1.2,2.7l-2.2-1c0.4-0.5,0.7-1.3,1.1-2.4
			s0.6-2.4,0.6-4c0-1.5-0.2-2.7-0.6-3.7s-1-1.8-1.6-2.4c-0.7-0.6-1.4-1-2.2-1.3c-0.8-0.3-1.5-0.4-2.3-0.4c-2.1,0-3.7,0.6-4.9,1.8
			C3.2,74.5,2,76.4,1,79c-0.6,1.5-1.3,2.8-2,4c-0.7,1.1-1.5,2.1-2.3,2.9s-1.8,1.3-2.9,1.7c-1.1,0.4-2.3,0.6-3.6,0.6
			c-1.4,0-2.6-0.2-3.9-0.7c-1.2-0.5-2.3-1.2-3.2-2.2s-1.7-2.2-2.2-3.6c-0.5-1.5-0.8-3.1-0.8-5c0-0.8,0.1-1.6,0.2-2.4
			s0.3-1.6,0.5-2.4s0.5-1.5,0.8-2.2c0.3-0.7,0.6-1.3,0.9-1.7L-15.3,68.8z"/>
		<path class="st0" d="M7,92.9l-14.9,4.3c-1.5,0.4-3,0.8-4.3,1.2c-1.4,0.4-2.7,0.7-4,1v0.2c1.2,0.3,2.6,0.7,3.9,1.2
			c1.4,0.4,2.8,0.9,4.4,1.4L7,107.4v2.4l-14.8,4.9c-1.6,0.5-3.1,1-4.5,1.4s-2.7,0.8-4,1.1v0.2c1.3,0.3,2.6,0.6,3.9,1
			c1.3,0.4,2.8,0.8,4.4,1.3l14.9,4.6v2.6l-26.4-8.6V116l14.7-4.9c1.6-0.5,3.1-1,4.5-1.5c1.4-0.4,2.9-0.8,4.4-1.2v-0.1
			c-1.6-0.4-3.1-0.8-4.5-1.3s-2.9-1-4.5-1.5l-14.6-5.2V98l26.4-8v2.9H7z"/>
		<path class="st0" d="M7,132.4v2.6h-26.4v-2.6H7z M15,131.4c0.6,0,1.2,0.2,1.6,0.6c0.4,0.4,0.7,0.9,0.7,1.6c0,0.6-0.2,1.2-0.7,1.6
			c-0.4,0.4-1,0.7-1.6,0.7s-1.1-0.2-1.6-0.7c-0.4-0.4-0.6-1-0.6-1.6s0.2-1.1,0.6-1.6C13.9,131.6,14.4,131.4,15,131.4L15,131.4z"/>
		<path class="st0" d="M-19.4,145.5H4.9v-3.8h2v3.8h1.5c1.6,0,3.2,0.1,4.6,0.4c1.4,0.3,2.7,0.8,3.7,1.5s1.9,1.6,2.5,2.7
			c0.6,1.1,0.9,2.5,0.9,4.1c0,0.8-0.1,1.6-0.3,2.3s-0.4,1.2-0.6,1.6l-2-0.8c0.2-0.4,0.3-0.8,0.5-1.3c0.1-0.5,0.2-1.2,0.2-1.9
			c0-1.2-0.3-2.2-0.8-3s-1.2-1.3-2-1.8c-0.8-0.4-1.8-0.7-3-0.9c-1.2-0.1-2.4-0.2-3.6-0.2H7v12.5H5v-12.5h-24.4V145.5z"/>
		<path class="st0" d="M12.8,162.4H6.9v7.3h-2v-7.3h-17.2c-1.8,0-3.1,0.3-4,0.9c-0.9,0.6-1.4,1.5-1.4,2.9c0,0.7,0,1.2,0.1,1.7
			s0.2,0.9,0.3,1.2l-2,0.3c-0.4-0.9-0.6-2.1-0.6-3.5c0-1.2,0.2-2.2,0.6-3c0.4-0.8,1-1.4,1.7-1.8c0.7-0.4,1.6-0.8,2.6-0.9
			c1-0.2,2.1-0.3,3.3-0.3H5v0.2h2v-0.2h4.9L12.8,162.4z"/>
	</g>
</g>
<g>
	<path class="st1" d="M42.9,59.7H15.7c-5.5,0-10-4.5-10-10V22.7c0-5.5,4.5-10,10-10h27.1c5.5,0,10,4.5,10,10v27.1
		C52.9,55.2,48.4,59.7,42.9,59.7z"/>
	<path class="st2" d="M42.8,41.7C42.8,41.7,42.8,41.7,42.8,41.7c0-0.2,0.1-0.4,0.1-0.5c2-7.8-2.8-17-10.9-21.8
		c3.5,4.8,5.1,10.6,3.7,15.7c-0.1,0.5-0.3,0.9-0.4,1.3c-0.2-0.1-0.4-0.2-0.7-0.4c0,0-8-5-16.7-13.7c-0.2-0.2,4.6,7,10.2,12.8
		c-2.6-1.5-9.9-6.7-14.4-10.9c0.6,0.9,1.2,1.8,2,2.7c3.8,4.9,8.8,10.9,14.8,15.5c-4.2,2.6-10.2,2.8-16.1,0c-1.5-0.7-2.8-1.5-4.1-2.5
		c2.5,4,6.4,7.5,11.1,9.5c5.6,2.4,11.2,2.2,15.3,0l0,0c1.7-1.1,6.3-2.8,8.6,1.7C45.7,52,46.8,46.7,42.8,41.7z"/>
</g>
</svg>
