<?xml version="1.0" encoding="utf-8"?>
<!-- Generator: Adobe Illustrator 17.1.0, SVG Export Plug-In . SVG Version: 6.00 Build 0)  -->
<!DOCTYPE svg PUBLIC "-//W3C//DTD SVG 1.1//EN" "http://www.w3.org/Graphics/SVG/1.1/DTD/svg11.dtd">
<svg version="1.1" id="Layer_1" xmlns="http://www.w3.org/2000/svg" xmlns:xlink="http://www.w3.org/1999/xlink" x="0px" y="0px"
	 viewBox="0 0 600 75" enable-background="new 0 0 600 75" xml:space="preserve">
<g>
	<g>
		<path d="M1.4,37.7v-0.2c0-19.2,14.5-35,35.3-35c11.9,0,19.3,3.7,25.3,9.2c0.8,0.7,0.8,1.9,0.2,2.6l-7.1,8.1
			c-0.7,0.8-1.8,0.9-2.6,0.2c-4.8-4-9.7-6.4-15.9-6.4C25.2,16.2,17,25.7,17,37.3v1.5c0,10.9,8.7,19.9,19.5,19.9
			c7.2,0,11.8-2.6,16.6-6.8c0.7-0.6,1.9-0.6,2.6,0.1l6.9,7c0.7,0.7,0.7,1.9,0,2.7c-6.6,6.6-14.2,10.7-26.4,10.7
			C16.2,72.5,1.4,57.1,1.4,37.7z"/>
		<path d="M67,37.7v-0.2c0-19.2,15.2-35,36.1-35c20.9,0,35.9,15.6,35.9,34.8v0.2c0,19.2-15.2,35-36.1,35S67,56.9,67,37.7z
			 M123.3,37.7v-0.2c0-11.6-8.5-21.3-20.5-21.3s-20.3,9.5-20.3,21.1v0.2c0,11.6,8.5,21.3,20.5,21.3S123.3,49.3,123.3,37.7z"/>
		<path d="M148.3,5.5c0-1,0.8-1.9,1.9-1.9h24.5c21.3,0,36,14.6,36,33.6v0.2c0,19-14.7,33.8-36,33.8h-24.5c-1,0-1.9-0.8-1.9-1.9V5.5z
			 M163.2,17.1V56c0,1,0.8,1.9,1.9,1.9h9.6c12.2,0,20.4-8.2,20.4-20.2v-0.2c0-12-8.2-20.4-20.4-20.4H163.2z"/>
		<path d="M221.9,3.7h47.3c1,0,1.9,0.8,1.9,1.9V15c0,1-0.8,1.9-1.9,1.9h-32.5c-1,0-1.9,0.8-1.9,1.9v10c0,1,0.8,1.9,1.9,1.9h28.1
			c1,0,1.9,0.8,1.9,1.9V42c0,1-0.8,1.9-1.9,1.9h-28.1c-1,0-1.9,0.8-1.9,1.9v10.4c0,1,0.8,1.9,1.9,1.9h33c1,0,1.9,0.8,1.9,1.9v9.5
			c0,1-0.8,1.9-1.9,1.9h-47.8c-1,0-1.9-0.8-1.9-1.9V5.5C220,4.5,220.9,3.7,221.9,3.7z"/>
		<path d="M284.8,5.5c0-1,0.8-1.9,1.9-1.9h25.8c16.1,0,25.9,9.6,25.9,23.4v0.2c0,15.7-12.2,23.8-27.4,23.8h-9.4
			c-1,0-1.9,0.8-1.9,1.9v16.5c0,1-0.8,1.9-1.9,1.9h-11.1c-1,0-1.9-0.8-1.9-1.9V5.5z M311.5,37.8c7.4,0,11.8-4.4,11.8-10.2v-0.2
			c0-6.7-4.6-10.2-12.1-10.2h-9.6c-1,0-1.9,0.8-1.9,1.9v16.9c0,1,0.8,1.9,1.9,1.9H311.5z"/>
		<path d="M367.1,3.2h11.2c0.8,0,1.4,0.5,1.7,1.1l27.4,64.4c0.5,1.2-0.4,2.6-1.7,2.6h-11.4c-0.8,0-1.5-0.5-1.7-1.2l-5.2-12.8
			c-0.3-0.7-1-1.2-1.7-1.2h-26.1c-0.8,0-1.5,0.5-1.7,1.2l-5.2,12.8c-0.3,0.7-1,1.2-1.7,1.2h-11.1c-1.4,0-2.3-1.4-1.7-2.6l27.4-64.4
			C365.6,3.6,366.3,3.2,367.1,3.2z M380.4,40.4l-6.2-15.1c-0.6-1.6-2.9-1.6-3.5,0l-6.2,15.1c-0.5,1.2,0.4,2.6,1.7,2.6h12.4
			C380,43,380.9,41.7,380.4,40.4z"/>
		<path d="M424.2,17.4h-16.8c-1,0-1.9-0.8-1.9-1.9v-10c0-1,0.8-1.9,1.9-1.9h52.3c1,0,1.9,0.8,1.9,1.9v10c0,1-0.8,1.9-1.9,1.9h-16.8
			c-1,0-1.9,0.8-1.9,1.9v50.2c0,1-0.8,1.9-1.9,1.9h-11.1c-1,0-1.9-0.8-1.9-1.9V19.3C426,18.2,425.2,17.4,424.2,17.4z"/>
		<path d="M474.8,3.7h11.1c1,0,1.9,0.8,1.9,1.9v23c0,1,0.8,1.9,1.9,1.9h23.7c1,0,1.9-0.8,1.9-1.9v-23c0-1,0.8-1.9,1.9-1.9h11.1
			c1,0,1.9,0.8,1.9,1.9v63.9c0,1-0.8,1.9-1.9,1.9h-11.1c-1,0-1.9-0.8-1.9-1.9V46.1c0-1-0.8-1.9-1.9-1.9h-23.7c-1,0-1.9,0.8-1.9,1.9
			v23.4c0,1-0.8,1.9-1.9,1.9h-11.1c-1,0-1.9-0.8-1.9-1.9V5.5C472.9,4.5,473.8,3.7,474.8,3.7z"/>
	</g>
	<path fill="#6EC396" d="M598.3,27.1l-4.9-8.3c-0.5-0.9-1.7-1.2-2.6-0.7l-11.8,7V12.6c0-1-0.8-1.9-1.9-1.9h-9.6
		c-1,0-1.9,0.8-1.9,1.9v12.7l-11.8-6.9c-0.9-0.5-2.1-0.2-2.6,0.7l-4.9,8.3c-0.5,0.9-0.2,2.1,0.7,2.6l12,7.1L547.2,44
		c-0.9,0.5-1.2,1.7-0.7,2.6l4.9,8.3c0.5,0.9,1.7,1.2,2.6,0.7l11.6-6.9v12.3c0,1.1,0.9,2,2,2h9.5c1,0,1.9-0.8,1.9-1.9V48.7l11.8,6.9
		c0.9,0.5,2.1,0.2,2.6-0.7l4.9-8.3c0.5-0.9,0.2-2.1-0.7-2.6l-12.2-7.1l12.2-7.2C598.5,29.1,598.8,28,598.3,27.1z"/>
</g>
</svg>
